<?xml version="1.0" encoding="UTF-8"?> <svg xmlns="http://www.w3.org/2000/svg" width="24" height="25" viewBox="0 0 24 25" fill="none"><path d="M8.25059 13.1469L16.6787 20.5625C16.7761 20.6488 16.8943 20.7082 17.0216 20.7349C17.1489 20.7617 17.281 20.7549 17.4048 20.7152C17.5287 20.6754 17.6401 20.6042 17.7281 20.5084C17.8161 20.4126 17.8777 20.2956 17.9068 20.1688L21.4318 4.77503C21.4614 4.64246 21.4544 4.50435 21.4116 4.37544C21.3688 4.24654 21.2918 4.13168 21.1888 4.04312C21.0858 3.95457 20.9607 3.89565 20.8268 3.87265C20.693 3.84965 20.5554 3.86343 20.4287 3.91253L3.12246 10.7094C2.42871 10.9813 2.52246 11.9938 3.25371 12.1438L8.25059 13.1469Z" stroke="white" stroke-linecap="round" stroke-linejoin="round"></path><path d="M8.25 13.1468L21.0094 3.93115" stroke="white" stroke-linecap="round" stroke-linejoin="round"></path><path d="M12.4594 16.8501L9.53437 19.7751C9.43002 19.8811 9.29653 19.9536 9.15085 19.9835C9.00517 20.0134 8.85388 19.9994 8.71622 19.9431C8.57856 19.8868 8.46073 19.7909 8.37772 19.6675C8.2947 19.5441 8.25025 19.3988 8.25 19.2501V13.147" stroke="white" stroke-linecap="round" stroke-linejoin="round"></path></svg> 