<?xml version="1.0" encoding="UTF-8"?> <svg xmlns="http://www.w3.org/2000/svg" width="300" height="51" viewBox="0 0 300 51" fill="none"><path d="M8.46257 9.16719C13.1367 4.46322 20.7149 4.46322 25.389 9.16719L41.5665 25.448C46.2406 30.152 46.2406 37.7786 41.5665 42.4826V42.4826C36.8924 47.1865 29.3141 47.1865 24.64 42.4826L8.46257 26.2018C3.78847 21.4978 3.78847 13.8712 8.46257 9.16719V9.16719Z" fill="#1375BE"></path><path d="M57.8021 9.16011C53.128 4.45614 45.5498 4.45614 40.8757 9.16011L24.6982 25.4409C20.0241 30.1449 20.0241 37.7715 24.6982 42.4755V42.4755C29.3723 47.1795 36.9505 47.1795 41.6246 42.4755L57.8021 26.1947C62.4762 21.4907 62.4762 13.8641 57.8021 9.16011V9.16011Z" fill="#FFE14B"></path><path d="M78.9766 15.5438V6.41072H84.3657V7.42125H80.1205V10.2737H81.4678C82.3744 10.2737 83.0777 10.3889 83.5777 10.6191C84.0776 10.8408 84.425 11.1478 84.6199 11.5401C84.8148 11.9238 84.9122 12.3673 84.9122 12.8704C84.9122 13.4247 84.8021 13.9022 84.5818 14.303C84.3699 14.7038 84.0225 15.0108 83.5395 15.224C83.0565 15.4372 82.421 15.5438 81.633 15.5438H78.9766ZM81.5186 14.5589C82.3321 14.5589 82.904 14.4224 83.2345 14.1495C83.565 13.8681 83.7302 13.4417 83.7302 12.8704C83.7302 12.4781 83.6497 12.1669 83.4887 11.9366C83.3362 11.6978 83.082 11.5273 82.7261 11.425C82.3787 11.3226 81.9126 11.2715 81.328 11.2715H80.1205V14.5589H81.5186Z" fill="white"></path><path d="M91.8296 15.5438H90.6984V9.62137H88.6901C88.6054 10.7044 88.4995 11.6296 88.3724 12.3971C88.2453 13.1561 88.0843 13.7743 87.8894 14.2519C87.6945 14.7294 87.4615 15.079 87.1903 15.3008C86.9192 15.5225 86.6014 15.6333 86.2371 15.6333C86.1269 15.6333 86.0168 15.6248 85.9066 15.6078C85.8049 15.5992 85.7202 15.5779 85.6524 15.5438V14.6996C85.7032 14.7166 85.7583 14.7294 85.8176 14.7379C85.877 14.7465 85.9363 14.7507 85.9956 14.7507C86.182 14.7507 86.3515 14.674 86.504 14.5205C86.6565 14.367 86.7921 14.1325 86.9107 13.817C87.0378 13.5014 87.1522 13.1049 87.2539 12.6274C87.3556 12.1413 87.4445 11.5699 87.5208 10.9133C87.5971 10.2567 87.6649 9.51478 87.7242 8.6876H91.8296V15.5438Z" fill="white"></path><path d="M96.5721 8.57247C97.4025 8.57247 98.0168 8.75582 98.4151 9.1225C98.8133 9.48919 99.0124 10.0733 99.0124 10.8749V15.5438H98.199L97.9829 14.5717H97.9321C97.7372 14.819 97.5338 15.0279 97.322 15.1984C97.1186 15.3605 96.8814 15.4798 96.6102 15.5566C96.3475 15.6333 96.0255 15.6717 95.6442 15.6717C95.2375 15.6717 94.8689 15.5992 94.5384 15.4543C94.2164 15.3093 93.9622 15.0876 93.7758 14.7891C93.5894 14.4821 93.4962 14.0984 93.4962 13.6379C93.4962 12.9557 93.7631 12.4312 94.2969 12.0645C94.8308 11.6893 95.6527 11.4847 96.7627 11.4505L97.9194 11.4122V11.0028C97.9194 10.4315 97.7965 10.035 97.5508 9.81324C97.305 9.59152 96.9576 9.48066 96.5085 9.48066C96.1526 9.48066 95.8137 9.53609 95.4917 9.64695C95.1697 9.74928 94.8689 9.86867 94.5893 10.0051L94.2461 9.16088C94.5427 8.99885 94.8943 8.86241 95.3011 8.75155C95.7078 8.63217 96.1315 8.57247 96.5721 8.57247ZM96.9025 12.2308C96.0552 12.2649 95.4663 12.4014 95.1358 12.6401C94.8138 12.8789 94.6528 13.2158 94.6528 13.6507C94.6528 14.0344 94.7672 14.3158 94.996 14.4949C95.2333 14.674 95.5341 14.7635 95.8984 14.7635C96.4746 14.7635 96.9534 14.6058 97.3347 14.2902C97.716 13.9662 97.9066 13.4716 97.9066 12.8064V12.1924L96.9025 12.2308Z" fill="white"></path><path d="M105.273 8.6876V9.63416H102.235V15.5438H101.117V8.6876H105.273Z" fill="white"></path><path d="M112.414 12.1029C112.414 12.6743 112.338 13.1817 112.185 13.6251C112.041 14.06 111.829 14.4309 111.55 14.7379C111.279 15.0449 110.944 15.2794 110.546 15.4415C110.156 15.595 109.72 15.6717 109.237 15.6717C108.787 15.6717 108.372 15.595 107.991 15.4415C107.61 15.2794 107.279 15.0449 107 14.7379C106.72 14.4309 106.5 14.06 106.339 13.6251C106.186 13.1817 106.11 12.6743 106.11 12.1029C106.11 11.3439 106.237 10.7044 106.491 10.1842C106.745 9.65548 107.11 9.25468 107.584 8.9818C108.059 8.70039 108.622 8.55968 109.275 8.55968C109.893 8.55968 110.436 8.70039 110.902 8.9818C111.376 9.25468 111.745 9.65548 112.007 10.1842C112.278 10.7044 112.414 11.3439 112.414 12.1029ZM107.266 12.1029C107.266 12.6401 107.334 13.1092 107.47 13.51C107.614 13.9022 107.834 14.205 108.131 14.4182C108.427 14.6313 108.804 14.7379 109.262 14.7379C109.72 14.7379 110.097 14.6313 110.393 14.4182C110.69 14.205 110.906 13.9022 111.041 13.51C111.185 13.1092 111.257 12.6401 111.257 12.1029C111.257 11.5571 111.185 11.0924 111.041 10.7086C110.897 10.3249 110.677 10.0307 110.38 9.82603C110.092 9.61284 109.715 9.50625 109.249 9.50625C108.554 9.50625 108.05 9.73649 107.737 10.197C107.423 10.6575 107.266 11.2928 107.266 12.1029Z" fill="white"></path><path d="M119.245 8.6876V14.5972H120.237V17.923H119.156V15.5438H114.416V17.923H113.348V14.5972H113.894C114.284 14.0515 114.606 13.4588 114.86 12.8192C115.123 12.1711 115.318 11.4974 115.445 10.7982C115.581 10.0904 115.653 9.38686 115.661 8.6876H119.245ZM116.653 9.5702C116.619 10.1501 116.53 10.7513 116.386 11.3738C116.242 11.9878 116.055 12.5762 115.826 13.139C115.606 13.7018 115.348 14.1879 115.051 14.5972H118.165V9.5702H116.653Z" fill="white"></path><path d="M122.691 8.6876V15.5438H121.572V8.6876H122.691ZM122.144 6.11652C122.314 6.11652 122.462 6.17621 122.589 6.2956C122.724 6.40646 122.792 6.58554 122.792 6.83284C122.792 7.07161 122.724 7.25069 122.589 7.37008C122.462 7.48947 122.314 7.54916 122.144 7.54916C121.958 7.54916 121.801 7.48947 121.674 7.37008C121.547 7.25069 121.483 7.07161 121.483 6.83284C121.483 6.58554 121.547 6.40646 121.674 6.2956C121.801 6.17621 121.958 6.11652 122.144 6.11652Z" fill="white"></path><path d="M130.365 5.8479C130.331 6.27428 130.225 6.63244 130.047 6.92238C129.878 7.21232 129.624 7.42977 129.285 7.57474C128.946 7.71971 128.505 7.7922 127.963 7.7922C127.412 7.7922 126.967 7.71971 126.628 7.57474C126.298 7.42977 126.056 7.21658 125.904 6.93517C125.751 6.64523 125.658 6.28281 125.624 5.8479H126.666C126.709 6.30839 126.827 6.61965 127.022 6.78167C127.226 6.93517 127.548 7.01192 127.988 7.01192C128.378 7.01192 128.683 6.93091 128.903 6.76888C129.132 6.59833 129.268 6.29134 129.31 5.8479H130.365ZM125.904 12.8704C125.904 12.9471 125.9 13.058 125.891 13.203C125.891 13.3394 125.887 13.4886 125.878 13.6507C125.87 13.8042 125.862 13.9534 125.853 14.0984C125.845 14.2348 125.836 14.3457 125.828 14.4309L129.475 8.6876H130.848V15.5438H129.806V11.5017C129.806 11.3653 129.806 11.1862 129.806 10.9645C129.814 10.7428 129.823 10.5253 129.831 10.3121C129.84 10.0904 129.848 9.9241 129.857 9.81324L126.234 15.5438H124.849V8.6876H125.904V12.8704Z" fill="white"></path><path d="M134.135 8.6876V11.5401H137.833V8.6876H138.952V15.5438H137.833V12.4866H134.135V15.5438H133.016V8.6876H134.135Z" fill="white"></path><path d="M142.164 12.8704C142.164 12.9471 142.16 13.058 142.151 13.203C142.151 13.3394 142.147 13.4886 142.139 13.6507C142.13 13.8042 142.122 13.9534 142.113 14.0984C142.105 14.2348 142.096 14.3457 142.088 14.4309L145.736 8.6876H147.108V15.5438H146.066V11.5017C146.066 11.3653 146.066 11.1862 146.066 10.9645C146.075 10.7428 146.083 10.5253 146.091 10.3121C146.1 10.0904 146.108 9.9241 146.117 9.81324L142.494 15.5438H141.109V8.6876H142.164V12.8704Z" fill="white"></path><path d="M154.793 5.8479C154.759 6.27428 154.653 6.63244 154.475 6.92238C154.305 7.21232 154.051 7.42977 153.712 7.57474C153.373 7.71971 152.933 7.7922 152.39 7.7922C151.84 7.7922 151.395 7.71971 151.056 7.57474C150.725 7.42977 150.484 7.21658 150.331 6.93517C150.179 6.64523 150.086 6.28281 150.052 5.8479H151.094C151.136 6.30839 151.255 6.61965 151.45 6.78167C151.653 6.93517 151.975 7.01192 152.416 7.01192C152.806 7.01192 153.111 6.93091 153.331 6.76888C153.56 6.59833 153.695 6.29134 153.738 5.8479H154.793ZM150.331 12.8704C150.331 12.9471 150.327 13.058 150.319 13.203C150.319 13.3394 150.314 13.4886 150.306 13.6507C150.297 13.8042 150.289 13.9534 150.28 14.0984C150.272 14.2348 150.264 14.3457 150.255 14.4309L153.903 8.6876H155.276V15.5438H154.233V11.5017C154.233 11.3653 154.233 11.1862 154.233 10.9645C154.242 10.7428 154.25 10.5253 154.259 10.3121C154.267 10.0904 154.276 9.9241 154.284 9.81324L150.662 15.5438H149.276V8.6876H150.331V12.8704Z" fill="white"></path><path d="M165.21 6.28281V7.40845C166.193 7.42551 166.968 7.58753 167.536 7.89453C168.103 8.20152 168.506 8.61085 168.743 9.1225C168.98 9.62563 169.099 10.1885 169.099 10.811C169.099 11.2203 169.035 11.6296 168.908 12.0389C168.79 12.4397 168.582 12.8064 168.286 13.139C167.989 13.4631 167.591 13.7274 167.091 13.9321C166.591 14.1367 165.964 14.2476 165.21 14.2647V15.6717H164.078V14.2647C163.307 14.2476 162.668 14.1367 162.159 13.9321C161.659 13.7189 161.265 13.446 160.977 13.1134C160.689 12.7723 160.486 12.4014 160.367 12.0006C160.248 11.5998 160.189 11.2032 160.189 10.811C160.189 10.359 160.253 9.93263 160.38 9.53183C160.515 9.12251 160.731 8.76435 161.028 8.45735C161.333 8.14183 161.736 7.89026 162.235 7.70266C162.735 7.51505 163.35 7.41698 164.078 7.40845V6.28281H165.21ZM164.078 8.3806C163.401 8.39766 162.858 8.50852 162.452 8.71318C162.053 8.91784 161.769 9.19925 161.6 9.55741C161.43 9.90705 161.346 10.3206 161.346 10.7982C161.346 11.3013 161.439 11.7405 161.625 12.1157C161.82 12.4824 162.117 12.7681 162.515 12.9727C162.922 13.1774 163.443 13.2925 164.078 13.3181V8.3806ZM165.21 13.3181C165.862 13.2925 166.387 13.1731 166.786 12.9599C167.192 12.7467 167.485 12.4568 167.663 12.0901C167.849 11.7149 167.942 11.2843 167.942 10.7982C167.942 10.3121 167.858 9.89425 167.688 9.54462C167.519 9.18646 167.235 8.90931 166.837 8.71318C166.438 8.50852 165.896 8.39766 165.21 8.3806V13.3181Z" fill="white"></path><path d="M176.76 12.1029C176.76 12.6743 176.683 13.1817 176.531 13.6251C176.387 14.06 176.175 14.4309 175.895 14.7379C175.624 15.0449 175.289 15.2794 174.891 15.4415C174.501 15.595 174.065 15.6717 173.582 15.6717C173.133 15.6717 172.718 15.595 172.336 15.4415C171.955 15.2794 171.625 15.0449 171.345 14.7379C171.065 14.4309 170.845 14.06 170.684 13.6251C170.532 13.1817 170.455 12.6743 170.455 12.1029C170.455 11.3439 170.582 10.7044 170.837 10.1842C171.091 9.65548 171.455 9.25468 171.93 8.9818C172.404 8.70039 172.968 8.55968 173.62 8.55968C174.239 8.55968 174.781 8.70039 175.247 8.9818C175.722 9.25468 176.09 9.65548 176.353 10.1842C176.624 10.7044 176.76 11.3439 176.76 12.1029ZM171.612 12.1029C171.612 12.6401 171.68 13.1092 171.815 13.51C171.959 13.9022 172.18 14.205 172.476 14.4182C172.773 14.6313 173.15 14.7379 173.607 14.7379C174.065 14.7379 174.442 14.6313 174.739 14.4182C175.035 14.205 175.251 13.9022 175.387 13.51C175.531 13.1092 175.603 12.6401 175.603 12.1029C175.603 11.5571 175.531 11.0924 175.387 10.7086C175.243 10.3249 175.022 10.0307 174.726 9.82603C174.438 9.61284 174.061 9.50625 173.595 9.50625C172.9 9.50625 172.396 9.73649 172.082 10.197C171.769 10.6575 171.612 11.2928 171.612 12.1029Z" fill="white"></path><path d="M179.651 8.6876V11.5401H183.349V8.6876H184.468V15.5438H183.349V12.4866H179.651V15.5438H178.532V8.6876H179.651Z" fill="white"></path><path d="M191.684 8.6876V14.5972H192.675V17.923H191.595V15.5438H186.854V17.923H185.786V14.5972H186.333C186.723 14.0515 187.045 13.4588 187.299 12.8192C187.561 12.1711 187.756 11.4974 187.883 10.7982C188.019 10.0904 188.091 9.38686 188.099 8.6876H191.684ZM189.091 9.5702C189.057 10.1501 188.968 10.7513 188.824 11.3738C188.68 11.9878 188.493 12.5762 188.265 13.139C188.044 13.7018 187.786 14.1879 187.489 14.5972H190.603V9.5702H189.091Z" fill="white"></path><path d="M80.9211 27.7383L84.8401 36.3511L88.632 27.7383H91.5341L86.1323 39.549C85.8922 40.0749 85.6309 40.5581 85.3485 40.9987C85.066 41.4393 84.7342 41.823 84.3529 42.1499C83.9715 42.4626 83.5338 42.7113 83.0395 42.8961C82.5593 43.0809 82.0015 43.1732 81.366 43.1732C80.914 43.1732 80.5257 43.1377 80.2009 43.0666C79.8902 43.0098 79.6218 42.9316 79.3959 42.8321C79.184 42.7326 79.0004 42.626 78.8451 42.5123C78.6897 42.3986 78.5556 42.292 78.4426 42.1926L79.989 40.2312C80.1444 40.3733 80.3491 40.5226 80.6033 40.6789C80.8717 40.8352 81.1894 40.9134 81.5566 40.9134C81.952 40.9134 82.298 40.7926 82.5946 40.551C82.8912 40.2952 83.1736 39.9256 83.442 39.4424L77.9766 27.7383H80.9211Z" fill="white"></path><path d="M95.6309 36.4791C96.0687 36.4791 96.4782 36.5217 96.8595 36.607L99.804 32.5137H102.6L99.0414 37.3531C100.058 37.8506 100.856 38.5541 101.435 39.4637C102.014 40.3733 102.473 41.4961 102.812 42.8321H100.016C99.8464 42.022 99.6275 41.3469 99.3592 40.8068C99.105 40.2667 98.7943 39.8333 98.4271 39.5064C98.074 39.1795 97.6645 38.9379 97.1985 38.7815C96.7465 38.6252 96.224 38.5328 95.6309 38.5044V42.8321H93.0888V32.5137H95.6309V36.4791Z" fill="white"></path><path d="M107.755 47.9487H105.213V32.5137H107.649V34.006H107.712C108.079 33.466 108.574 33.0396 109.195 32.7269C109.816 32.4 110.501 32.2366 111.25 32.2366C112.027 32.2366 112.726 32.3787 113.347 32.6629C113.968 32.9472 114.498 33.3381 114.936 33.8355C115.374 34.3187 115.713 34.8943 115.953 35.5623C116.193 36.2161 116.313 36.9125 116.313 37.6516C116.313 38.3907 116.193 39.0942 115.953 39.7622C115.727 40.416 115.395 40.9916 114.957 41.489C114.519 41.9865 113.983 42.3844 113.347 42.6829C112.726 42.9672 112.027 43.1093 111.25 43.1093C110.572 43.1093 109.915 42.9672 109.28 42.6829C108.658 42.3844 108.164 41.9652 107.797 41.4251H107.755V47.9487ZM113.58 38.9307C113.721 38.5186 113.792 38.0922 113.792 37.6516C113.792 37.211 113.721 36.7917 113.58 36.3938C113.453 35.9816 113.262 35.6263 113.008 35.3278C112.754 35.0152 112.436 34.7735 112.055 34.603C111.674 34.4182 111.229 34.3258 110.72 34.3258C110.254 34.3258 109.831 34.4182 109.449 34.603C109.068 34.7735 108.736 35.0152 108.454 35.3278C108.185 35.6263 107.973 35.9816 107.818 36.3938C107.677 36.7917 107.606 37.211 107.606 37.6516C107.606 38.1064 107.677 38.5399 107.818 38.9521C107.973 39.35 108.185 39.6982 108.454 39.9967C108.736 40.2952 109.068 40.5368 109.449 40.7215C109.831 40.8921 110.254 40.9774 110.72 40.9774C111.229 40.9774 111.674 40.8921 112.055 40.7215C112.436 40.5368 112.754 40.2952 113.008 39.9967C113.262 39.684 113.453 39.3287 113.58 38.9307Z" fill="white"></path><path d="M125.114 36.1806C125.114 35.4984 124.909 34.9938 124.499 34.6669C124.09 34.34 123.546 34.1766 122.868 34.1766C122.332 34.1766 121.816 34.2832 121.322 34.4964C120.842 34.7096 120.432 34.9796 120.093 35.3065L118.78 33.8355C119.302 33.3381 119.938 32.9472 120.686 32.6629C121.449 32.3645 122.254 32.2152 123.101 32.2152C124.443 32.2152 125.488 32.535 126.237 33.1746C126.985 33.8142 127.395 34.8162 127.465 36.1806C127.479 36.3796 127.486 36.5785 127.486 36.7775C127.5 36.9765 127.508 37.1826 127.508 37.3958V40.6576C127.508 41.0271 127.515 41.4038 127.529 41.7875C127.543 42.157 127.564 42.5052 127.592 42.8321H125.262C125.248 42.6189 125.234 42.3986 125.22 42.1712C125.206 41.9438 125.198 41.7093 125.198 41.4677H125.156C124.789 42.0078 124.33 42.4129 123.779 42.6829C123.228 42.9529 122.593 43.088 121.873 43.088C121.477 43.088 121.061 43.0311 120.623 42.9174C120.199 42.8037 119.811 42.6261 119.458 42.3844C119.105 42.1286 118.808 41.8017 118.568 41.4038C118.342 40.9916 118.229 40.487 118.229 39.8901C118.229 39.1226 118.427 38.5115 118.822 38.0567C119.232 37.6019 119.761 37.2536 120.411 37.012C121.075 36.7704 121.816 36.6141 122.635 36.543C123.454 36.472 124.281 36.4364 125.114 36.4364V36.1806ZM124.732 38.0353C124.252 38.0353 123.765 38.0567 123.271 38.0993C122.791 38.1419 122.353 38.2272 121.957 38.3551C121.576 38.4688 121.258 38.6465 121.004 38.8881C120.764 39.1155 120.644 39.4211 120.644 39.8048C120.644 40.0891 120.7 40.3236 120.813 40.5084C120.926 40.6931 121.068 40.8424 121.237 40.9561C121.421 41.0698 121.626 41.155 121.851 41.2119C122.077 41.2545 122.303 41.2758 122.529 41.2758C123.377 41.2758 124.026 41.02 124.478 40.5084C124.93 39.9825 125.156 39.3358 125.156 38.5683V38.0353H124.732Z" fill="white"></path><path d="M133.159 42.8321H130.617V32.5137H133.159V42.8321ZM128.308 28.9108C128.308 28.5413 128.449 28.2144 128.732 27.9301C129 27.6317 129.339 27.4824 129.748 27.4824C130.158 27.4824 130.504 27.6245 130.786 27.9088C131.069 28.1931 131.21 28.5271 131.21 28.9108C131.21 29.3088 131.069 29.6499 130.786 29.9341C130.504 30.2184 130.158 30.3605 129.748 30.3605C129.339 30.3605 129 30.2184 128.732 29.9341C128.449 29.6356 128.308 29.2945 128.308 28.9108ZM132.672 28.9108C132.672 28.5413 132.806 28.2144 133.074 27.9301C133.357 27.6317 133.703 27.4824 134.112 27.4824C134.522 27.4824 134.861 27.6245 135.129 27.9088C135.411 28.1931 135.553 28.5271 135.553 28.9108C135.553 29.3088 135.411 29.6499 135.129 29.9341C134.861 30.2184 134.522 30.3605 134.112 30.3605C133.703 30.3605 133.357 30.2184 133.074 29.9341C132.806 29.6356 132.672 29.2945 132.672 28.9108Z" fill="white"></path><path d="M138.929 42.8321H136.387V32.5137H138.929V36.4791H143.441V32.5137H145.983V42.8321H143.441V38.483H138.929V42.8321Z" fill="white"></path><path d="M156.355 35.4131C156.143 35.0862 155.839 34.8304 155.444 34.6456C155.048 34.4466 154.632 34.3472 154.194 34.3472C153.728 34.3472 153.304 34.4324 152.923 34.603C152.556 34.7735 152.238 35.008 151.97 35.3065C151.715 35.605 151.511 35.9603 151.355 36.3725C151.214 36.7704 151.143 37.2039 151.143 37.6729C151.143 38.1277 151.214 38.5612 151.355 38.9734C151.496 39.3713 151.701 39.7196 151.97 40.018C152.238 40.3165 152.563 40.551 152.944 40.7215C153.325 40.8921 153.749 40.9774 154.215 40.9774C154.695 40.9774 155.126 40.885 155.507 40.7002C155.903 40.5155 156.22 40.2667 156.461 39.9541L158.007 41.5956C157.569 42.0646 157.018 42.4413 156.355 42.7255C155.705 42.9956 154.971 43.1306 154.151 43.1306C153.332 43.1306 152.577 43.0027 151.885 42.7469C151.207 42.4768 150.614 42.1073 150.105 41.6383C149.611 41.155 149.223 40.5794 148.94 39.9114C148.672 39.2434 148.538 38.4973 148.538 37.6729C148.538 36.8628 148.679 36.1237 148.961 35.4557C149.244 34.7877 149.632 34.2121 150.127 33.7289C150.621 33.2457 151.214 32.8761 151.906 32.6203C152.598 32.3503 153.347 32.2152 154.151 32.2152C154.872 32.2152 155.578 32.3503 156.27 32.6203C156.976 32.8904 157.541 33.2741 157.965 33.7715L156.355 35.4131Z" fill="white"></path><path d="M162.285 32.5137V35.8395H164.679C165.441 35.8395 166.091 35.9319 166.628 36.1166C167.164 36.2872 167.595 36.5288 167.92 36.8415C168.259 37.1542 168.499 37.5237 168.64 37.9501C168.795 38.3765 168.873 38.8313 168.873 39.3145C168.873 39.8119 168.781 40.2738 168.598 40.7002C168.428 41.1266 168.167 41.4961 167.814 41.8088C167.475 42.1215 167.051 42.3702 166.543 42.555C166.035 42.7397 165.441 42.8321 164.764 42.8321H159.743V32.5137H162.285ZM162.285 40.9774H164.213C164.848 40.9774 165.364 40.8637 165.759 40.6363C166.155 40.3947 166.352 39.9541 166.352 39.3145C166.352 39.0018 166.296 38.7389 166.183 38.5257C166.07 38.3125 165.915 38.1491 165.717 38.0353C165.519 37.9074 165.286 37.8222 165.018 37.7795C164.764 37.7227 164.481 37.6942 164.17 37.6942H162.285V40.9774Z" fill="white"></path><path d="M173.746 36.4791C174.184 36.4791 174.593 36.5217 174.974 36.607L177.919 32.5137H180.715L177.156 37.3531C178.173 37.8506 178.971 38.5541 179.55 39.4637C180.129 40.3733 180.588 41.4961 180.927 42.8321H178.131C177.961 42.022 177.742 41.3469 177.474 40.8068C177.22 40.2667 176.909 39.8333 176.542 39.5064C176.189 39.1795 175.779 38.9379 175.313 38.7815C174.861 38.6252 174.339 38.5328 173.746 38.5044V42.8321H171.204V32.5137H173.746V36.4791Z" fill="white"></path><path d="M189.513 36.1806C189.513 35.4984 189.308 34.9938 188.899 34.6669C188.489 34.34 187.945 34.1766 187.268 34.1766C186.731 34.1766 186.215 34.2832 185.721 34.4964C185.241 34.7096 184.831 34.9796 184.492 35.3065L183.179 33.8355C183.702 33.3381 184.337 32.9472 185.086 32.6629C185.848 32.3645 186.653 32.2152 187.501 32.2152C188.842 32.2152 189.887 32.535 190.636 33.1746C191.384 33.8142 191.794 34.8162 191.864 36.1806C191.879 36.3796 191.886 36.5785 191.886 36.7775C191.9 36.9765 191.907 37.1826 191.907 37.3958V40.6576C191.907 41.0271 191.914 41.4038 191.928 41.7875C191.942 42.157 191.963 42.5052 191.992 42.8321H189.661C189.647 42.6189 189.633 42.3986 189.619 42.1712C189.605 41.9438 189.598 41.7093 189.598 41.4677H189.555C189.188 42.0078 188.729 42.4129 188.178 42.6829C187.628 42.9529 186.992 43.088 186.272 43.088C185.876 43.088 185.46 43.0311 185.022 42.9174C184.598 42.8037 184.21 42.6261 183.857 42.3844C183.504 42.1286 183.207 41.8017 182.967 41.4038C182.741 40.9916 182.628 40.487 182.628 39.8901C182.628 39.1226 182.826 38.5115 183.221 38.0567C183.631 37.6019 184.161 37.2536 184.81 37.012C185.474 36.7704 186.215 36.6141 187.035 36.543C187.854 36.472 188.68 36.4364 189.513 36.4364V36.1806ZM189.132 38.0353C188.652 38.0353 188.164 38.0567 187.67 38.0993C187.19 38.1419 186.752 38.2272 186.357 38.3551C185.975 38.4688 185.658 38.6465 185.403 38.8881C185.163 39.1155 185.043 39.4211 185.043 39.8048C185.043 40.0891 185.1 40.3236 185.213 40.5084C185.326 40.6931 185.467 40.8424 185.636 40.9561C185.82 41.0698 186.025 41.155 186.251 41.2119C186.477 41.2545 186.703 41.2758 186.929 41.2758C187.776 41.2758 188.426 41.02 188.878 40.5084C189.329 39.9825 189.555 39.3358 189.555 38.5683V38.0353H189.132Z" fill="white"></path><path d="M212.26 27.7383V42.8321H209.612V30.0407H203.087V42.8321H200.439V27.7383H212.26Z" fill="white"></path><path d="M223.013 36.6709C222.999 35.9319 222.766 35.3136 222.314 34.8162C221.876 34.3187 221.234 34.07 220.386 34.07C219.977 34.07 219.603 34.1411 219.264 34.2832C218.925 34.4253 218.628 34.6172 218.374 34.8588C218.12 35.0862 217.915 35.3634 217.76 35.6903C217.618 36.0029 217.534 36.3298 217.505 36.6709H223.013ZM225.428 37.609V37.9714C225.428 38.0993 225.421 38.2272 225.407 38.3551H217.484C217.498 38.7389 217.59 39.1013 217.76 39.4424C217.929 39.7835 218.148 40.0749 218.416 40.3165C218.699 40.5581 219.017 40.75 219.37 40.8921C219.723 41.0342 220.104 41.1053 220.514 41.1053C221.149 41.1053 221.7 40.9703 222.166 40.7002C222.632 40.4302 222.992 40.1033 223.246 39.7196L225.047 40.9347C224.51 41.6738 223.854 42.2281 223.077 42.5976C222.314 42.9529 221.453 43.1306 220.492 43.1306C219.73 43.1306 219.01 43.0027 218.332 42.7469C217.668 42.491 217.089 42.1286 216.595 41.6596C216.1 41.1906 215.712 40.6221 215.429 39.9541C215.147 39.2861 215.006 38.5328 215.006 37.6942C215.006 36.8841 215.14 36.1451 215.408 35.4771C215.691 34.7949 216.072 34.2121 216.552 33.7289C217.046 33.2457 217.618 32.8761 218.268 32.6203C218.918 32.3503 219.624 32.2152 220.386 32.2152C221.163 32.2152 221.862 32.3503 222.484 32.6203C223.105 32.8761 223.635 33.2386 224.072 33.7076C224.51 34.1766 224.842 34.7451 225.068 35.4131C225.308 36.0669 225.428 36.7988 225.428 37.609Z" fill="white"></path><path d="M230.554 47.9487H228.012V32.5137H230.448V34.006H230.511C230.879 33.466 231.373 33.0396 231.994 32.7269C232.616 32.4 233.301 32.2366 234.049 32.2366C234.826 32.2366 235.525 32.3787 236.146 32.6629C236.768 32.9472 237.297 33.3381 237.735 33.8355C238.173 34.3187 238.512 34.8943 238.752 35.5623C238.992 36.2161 239.112 36.9125 239.112 37.6516C239.112 38.3907 238.992 39.0942 238.752 39.7622C238.526 40.416 238.194 40.9916 237.756 41.489C237.318 41.9865 236.782 42.3844 236.146 42.6829C235.525 42.9672 234.826 43.1093 234.049 43.1093C233.371 43.1093 232.715 42.9672 232.079 42.6829C231.458 42.3844 230.963 41.9652 230.596 41.4251H230.554V47.9487ZM236.379 38.9307C236.521 38.5186 236.591 38.0922 236.591 37.6516C236.591 37.211 236.521 36.7917 236.379 36.3938C236.252 35.9816 236.062 35.6263 235.807 35.3278C235.553 35.0152 235.235 34.7735 234.854 34.603C234.473 34.4182 234.028 34.3258 233.52 34.3258C233.053 34.3258 232.63 34.4182 232.248 34.603C231.867 34.7735 231.535 35.0152 231.253 35.3278C230.985 35.6263 230.773 35.9816 230.617 36.3938C230.476 36.7917 230.406 37.211 230.406 37.6516C230.406 38.1064 230.476 38.5399 230.617 38.9521C230.773 39.35 230.985 39.6982 231.253 39.9967C231.535 40.2952 231.867 40.5368 232.248 40.7215C232.63 40.8921 233.053 40.9774 233.52 40.9774C234.028 40.9774 234.473 40.8921 234.854 40.7215C235.235 40.5368 235.553 40.2952 235.807 39.9967C236.062 39.684 236.252 39.3287 236.379 38.9307Z" fill="white"></path><path d="M249.12 36.6709C249.106 35.9319 248.873 35.3136 248.421 34.8162C247.984 34.3187 247.341 34.07 246.494 34.07C246.084 34.07 245.71 34.1411 245.371 34.2832C245.032 34.4253 244.735 34.6172 244.481 34.8588C244.227 35.0862 244.022 35.3634 243.867 35.6903C243.726 36.0029 243.641 36.3298 243.613 36.6709H249.12ZM251.535 37.609V37.9714C251.535 38.0993 251.528 38.2272 251.514 38.3551H243.592C243.606 38.7389 243.697 39.1013 243.867 39.4424C244.036 39.7835 244.255 40.0749 244.524 40.3165C244.806 40.5581 245.124 40.75 245.477 40.8921C245.83 41.0342 246.211 41.1053 246.621 41.1053C247.256 41.1053 247.807 40.9703 248.273 40.7002C248.739 40.4302 249.099 40.1033 249.354 39.7196L251.154 40.9347C250.617 41.6738 249.961 42.2281 249.184 42.5976C248.421 42.9529 247.56 43.1306 246.6 43.1306C245.837 43.1306 245.117 43.0027 244.439 42.7469C243.775 42.491 243.196 42.1286 242.702 41.6596C242.208 41.1906 241.819 40.6221 241.537 39.9541C241.254 39.2861 241.113 38.5328 241.113 37.6942C241.113 36.8841 241.247 36.1451 241.516 35.4771C241.798 34.7949 242.179 34.2121 242.659 33.7289C243.154 33.2457 243.726 32.8761 244.375 32.6203C245.025 32.3503 245.731 32.2152 246.494 32.2152C247.27 32.2152 247.97 32.3503 248.591 32.6203C249.212 32.8761 249.742 33.2386 250.18 33.7076C250.617 34.1766 250.949 34.7451 251.175 35.4131C251.415 36.0669 251.535 36.7988 251.535 37.609Z" fill="white"></path><path d="M256.301 32.5137L260.178 37.1826L263.991 32.5137H266.215V42.8321H263.673V36.0953L260.453 40.3165H259.86L256.619 36.1593V42.8321H254.077V32.5137H256.301Z" fill="white"></path><path d="M279.533 35.4344C279.83 36.1024 279.978 36.8415 279.978 37.6516C279.978 38.4617 279.83 39.2079 279.533 39.8901C279.251 40.5581 278.855 41.1337 278.347 41.6169C277.853 42.1002 277.259 42.4768 276.567 42.7469C275.89 43.0027 275.155 43.1306 274.364 43.1306C273.573 43.1306 272.839 43.0027 272.161 42.7469C271.483 42.4768 270.89 42.1002 270.382 41.6169C269.888 41.1337 269.492 40.5581 269.196 39.8901C268.913 39.2079 268.772 38.4617 268.772 37.6516C268.772 36.8415 268.913 36.1024 269.196 35.4344C269.492 34.7664 269.888 34.1979 270.382 33.7289C270.89 33.2457 271.483 32.8761 272.161 32.6203C272.839 32.3503 273.573 32.2152 274.364 32.2152C275.155 32.2152 275.89 32.3503 276.567 32.6203C277.259 32.8761 277.853 33.2457 278.347 33.7289C278.855 34.1979 279.251 34.7664 279.533 35.4344ZM277.245 38.9307C277.387 38.5186 277.457 38.0922 277.457 37.6516C277.457 37.211 277.387 36.7917 277.245 36.3938C277.104 35.9816 276.899 35.6263 276.631 35.3278C276.377 35.0152 276.052 34.7735 275.657 34.603C275.275 34.4182 274.845 34.3258 274.364 34.3258C273.884 34.3258 273.453 34.4182 273.072 34.603C272.691 34.7735 272.366 35.0152 272.098 35.3278C271.843 35.6263 271.646 35.9816 271.505 36.3938C271.363 36.7917 271.293 37.211 271.293 37.6516C271.293 38.0922 271.363 38.5186 271.505 38.9307C271.646 39.3287 271.843 39.684 272.098 39.9967C272.366 40.2952 272.691 40.5368 273.072 40.7215C273.453 40.8921 273.884 40.9774 274.364 40.9774C274.845 40.9774 275.275 40.8921 275.657 40.7215C276.052 40.5368 276.377 40.2952 276.631 39.9967C276.899 39.684 277.104 39.3287 277.245 38.9307Z" fill="white"></path><path d="M285.084 42.8321H282.542V32.5137H289.385V34.5177H285.084V42.8321Z" fill="white"></path><path d="M297.521 36.1806C297.521 35.4984 297.316 34.9938 296.907 34.6669C296.497 34.34 295.953 34.1766 295.275 34.1766C294.739 34.1766 294.223 34.2832 293.729 34.4964C293.249 34.7096 292.839 34.9796 292.5 35.3065L291.187 33.8355C291.71 33.3381 292.345 32.9472 293.094 32.6629C293.856 32.3645 294.661 32.2152 295.508 32.2152C296.85 32.2152 297.895 32.535 298.644 33.1746C299.392 33.8142 299.802 34.8162 299.872 36.1806C299.886 36.3796 299.894 36.5785 299.894 36.7775C299.908 36.9765 299.915 37.1826 299.915 37.3958V40.6576C299.915 41.0271 299.922 41.4038 299.936 41.7875C299.95 42.157 299.971 42.5052 299.999 42.8321H297.669C297.655 42.6189 297.641 42.3986 297.627 42.1712C297.613 41.9438 297.606 41.7093 297.606 41.4677H297.563C297.196 42.0078 296.737 42.4129 296.186 42.6829C295.636 42.9529 295 43.088 294.28 43.088C293.884 43.088 293.468 43.0311 293.03 42.9174C292.606 42.8037 292.218 42.6261 291.865 42.3844C291.512 42.1286 291.215 41.8017 290.975 41.4038C290.749 40.9916 290.636 40.487 290.636 39.8901C290.636 39.1226 290.834 38.5115 291.229 38.0567C291.639 37.6019 292.169 37.2536 292.818 37.012C293.482 36.7704 294.223 36.6141 295.042 36.543C295.862 36.472 296.688 36.4364 297.521 36.4364V36.1806ZM297.14 38.0353C296.659 38.0353 296.172 38.0567 295.678 38.0993C295.198 38.1419 294.76 38.2272 294.365 38.3551C293.983 38.4688 293.666 38.6465 293.411 38.8881C293.171 39.1155 293.051 39.4211 293.051 39.8048C293.051 40.0891 293.108 40.3236 293.221 40.5084C293.334 40.6931 293.475 40.8424 293.644 40.9561C293.828 41.0698 294.033 41.155 294.259 41.2119C294.485 41.2545 294.711 41.2758 294.937 41.2758C295.784 41.2758 296.434 41.02 296.885 40.5084C297.337 39.9825 297.563 39.3358 297.563 38.5683V38.0353H297.14Z" fill="white"></path><path d="M38.0723 31.518C36.1695 28.583 36.0628 26.507 37.7166 24.4132C38.4101 24.8964 39.1215 25.3796 39.8328 25.8628C35.4049 20.9413 32.2218 15.3039 29.7144 9.25498C29.3588 8.41385 29.1276 7.50114 28.932 6.60632C28.8608 6.26629 29.0387 5.89047 29.1098 5.51465C29.4477 5.62202 29.91 5.63992 30.1234 5.87257C31.0837 6.87477 32.0795 7.87696 32.8975 9.00443C35.8139 12.9953 38.2501 17.2904 40.1529 21.8898C40.224 22.0866 40.3129 22.2656 40.4018 22.4446C44.1184 22.4446 45.8967 23.3752 46.6613 25.7375C45.9322 26.0775 45.2031 26.4175 44.3674 26.8113C46.3057 26.5249 48.1017 26.1491 49.9333 26.0059C55.0192 25.5764 60.1051 25.5764 65.1553 26.5786C65.6533 26.6681 66.1334 26.8292 66.5957 27.026C66.8625 27.1513 67.0581 27.4376 67.2715 27.6524C67.0581 27.8671 66.8625 28.2251 66.6135 28.2788C65.1553 28.6367 63.6794 29.0483 62.2034 29.2273C57.4199 29.7642 52.6185 29.7284 47.835 29.102C47.5682 29.0662 47.3015 29.0483 47.0703 29.0304C45.3276 32.1802 43.4604 33.3792 41.1131 32.8244C41.1843 31.9833 41.2554 31.1422 41.3443 30.2832C41.2909 30.2653 41.2376 30.2653 41.1843 30.2474C41.042 30.7664 40.9531 31.3032 40.7575 31.8222C38.5346 37.9249 35.3515 43.4727 31.2082 48.4479C30.8169 48.9132 30.319 49.3248 29.8033 49.6828C29.2343 50.0586 28.8431 49.8438 28.9142 49.1638C29.0209 48.3226 29.1987 47.4457 29.501 46.6583C31.4927 41.4147 34.2668 36.6184 37.6099 32.1265C37.7522 31.9475 37.9122 31.7328 38.0723 31.518Z" fill="#232222"></path></svg> 