<svg width="280" height="47" viewBox="0 0 280 47" fill="none" xmlns="http://www.w3.org/2000/svg">
<path d="M7.89983 7.95618C12.2623 3.56581 19.3353 3.56581 23.6978 7.95618L38.7968 23.1516C43.1593 27.542 43.1593 34.6602 38.7968 39.0505C34.4343 43.4409 27.3613 43.4409 22.9988 39.0505L7.89983 23.8551C3.53733 19.4647 3.53733 12.3465 7.89983 7.95618Z" fill="#1375BE"/>
<path d="M53.9478 7.94947C49.5853 3.5591 42.5123 3.5591 38.1498 7.94947L23.0509 23.1449C18.6884 27.5353 18.6884 34.6535 23.0509 39.0438C27.4134 43.4342 34.4864 43.4342 38.8489 39.0438L53.9478 23.8484C58.3103 19.458 58.3103 12.3398 53.9478 7.94947Z" fill="#FFE14B"/>
<path d="M73.7129 13.9077V5.38346H78.7427V6.32661H74.7805V8.98893H76.038C76.8842 8.98893 77.5406 9.09638 78.0073 9.31128C78.4739 9.51821 78.7981 9.80474 78.98 10.1709C79.1619 10.529 79.2529 10.9429 79.2529 11.4125C79.2529 11.9298 79.15 12.3755 78.9444 12.7496C78.7467 13.1237 78.4225 13.4102 77.9717 13.6092C77.5209 13.8082 76.9277 13.9077 76.1922 13.9077H73.7129ZM76.0855 12.9884C76.8447 12.9884 77.3785 12.861 77.687 12.6063C77.9954 12.3437 78.1496 11.9457 78.1496 11.4125C78.1496 11.0464 78.0745 10.7559 77.9242 10.541C77.7819 10.3181 77.5446 10.1589 77.2124 10.0634C76.8882 9.9679 76.4532 9.92015 75.9075 9.92015H74.7805V12.9884H76.0855Z" fill="white"/>
<path d="M85.709 13.9077H84.6532V8.38006H82.7789C82.6998 9.39087 82.601 10.2544 82.4823 10.9707C82.3637 11.6791 82.2134 12.2561 82.0315 12.7019C81.8496 13.1476 81.6322 13.4739 81.3791 13.6808C81.126 13.8878 80.8294 13.9912 80.4894 13.9912C80.3866 13.9912 80.2837 13.9833 80.1809 13.9674C80.086 13.9594 80.0069 13.9395 79.9437 13.9077V13.1197C79.9911 13.1356 80.0425 13.1476 80.0979 13.1555C80.1533 13.1635 80.2086 13.1675 80.264 13.1675C80.438 13.1675 80.5961 13.0958 80.7385 12.9526C80.8808 12.8093 81.0074 12.5904 81.1181 12.2959C81.2367 12.0015 81.3435 11.6314 81.4384 11.1856C81.5333 10.732 81.6163 10.1987 81.6875 9.58586C81.7587 8.97301 81.822 8.28057 81.8773 7.50854H85.709V13.9077Z" fill="white"/>
<path d="M90.1354 7.40109C90.9104 7.40109 91.4838 7.57221 91.8555 7.91445C92.2272 8.25669 92.413 8.80189 92.413 9.55005V13.9077H91.6538L91.4521 13.0003H91.4047C91.2228 13.2311 91.033 13.4261 90.8353 13.5853C90.6455 13.7365 90.424 13.848 90.171 13.9196C89.9258 13.9912 89.6253 14.027 89.2694 14.027C88.8898 14.027 88.5457 13.9594 88.2373 13.8241C87.9368 13.6888 87.6995 13.4818 87.5255 13.2033C87.3515 12.9168 87.2646 12.5586 87.2646 12.1288C87.2646 11.4921 87.5137 11.0026 88.0119 10.6603C88.5102 10.3101 89.2773 10.1191 90.3133 10.0873L91.3928 10.0515V9.66944C91.3928 9.13617 91.2782 8.76608 91.0488 8.55914C90.8195 8.3522 90.4952 8.24873 90.0761 8.24873C89.7439 8.24873 89.4276 8.30047 89.127 8.40394C88.8265 8.49945 88.5457 8.61087 88.2848 8.73822L87.9645 7.95027C88.2413 7.79905 88.5695 7.6717 88.9491 7.56823C89.3287 7.4568 89.7241 7.40109 90.1354 7.40109ZM90.4438 10.8155C89.6529 10.8474 89.1033 10.9747 88.7949 11.1976C88.4943 11.4204 88.3441 11.7348 88.3441 12.1407C88.3441 12.4989 88.4508 12.7615 88.6644 12.9287C88.8858 13.0958 89.1666 13.1794 89.5066 13.1794C90.0444 13.1794 90.4913 13.0322 90.8471 12.7377C91.203 12.4352 91.381 11.9736 91.381 11.3528V10.7797L90.4438 10.8155Z" fill="white"/>
<path d="M98.2561 7.50854V8.392H95.4208V13.9077H94.3769V7.50854H98.2561Z" fill="white"/>
<path d="M104.921 10.6962C104.921 11.2294 104.85 11.703 104.708 12.1169C104.573 12.5228 104.376 12.869 104.115 13.1555C103.861 13.4421 103.549 13.6609 103.177 13.8122C102.814 13.9554 102.406 14.027 101.956 14.027C101.536 14.027 101.149 13.9554 100.793 13.8122C100.437 13.6609 100.129 13.4421 99.8676 13.1555C99.6067 12.869 99.401 12.5228 99.2508 12.1169C99.1084 11.703 99.0372 11.2294 99.0372 10.6962C99.0372 9.9878 99.1559 9.39087 99.3931 8.90536C99.6304 8.4119 99.9705 8.03782 100.413 7.78313C100.856 7.52048 101.382 7.38915 101.991 7.38915C102.568 7.38915 103.075 7.52048 103.51 7.78313C103.952 8.03782 104.296 8.4119 104.542 8.90536C104.795 9.39087 104.921 9.9878 104.921 10.6962ZM100.117 10.6962C100.117 11.1976 100.18 11.6353 100.307 12.0094C100.441 12.3755 100.647 12.6581 100.923 12.8571C101.2 13.056 101.552 13.1555 101.979 13.1555C102.406 13.1555 102.758 13.056 103.035 12.8571C103.312 12.6581 103.514 12.3755 103.64 12.0094C103.774 11.6353 103.842 11.1976 103.842 10.6962C103.842 10.1868 103.774 9.75301 103.64 9.39485C103.506 9.03669 103.3 8.7621 103.023 8.57108C102.754 8.3721 102.402 8.27261 101.967 8.27261C101.319 8.27261 100.848 8.48751 100.556 8.9173C100.263 9.34709 100.117 9.94004 100.117 10.6962Z" fill="white"/>
<path d="M111.297 7.50854V13.0242H112.222V16.1283H111.214V13.9077H106.789V16.1283H105.793V13.0242H106.303C106.667 12.5148 106.967 11.9617 107.204 11.3647C107.45 10.7598 107.632 10.1311 107.75 9.47842C107.877 8.81781 107.944 8.16118 107.952 7.50854H111.297ZM108.877 8.33231C108.845 8.87352 108.762 9.43464 108.628 10.0157C108.494 10.5887 108.32 11.1379 108.106 11.6632C107.9 12.1885 107.659 12.6422 107.382 13.0242H110.289V8.33231H108.877Z" fill="white"/>
<path d="M114.513 7.50854V13.9077H113.469V7.50854H114.513ZM114.003 5.10887C114.161 5.10887 114.299 5.16458 114.418 5.27601C114.544 5.37948 114.608 5.54662 114.608 5.77743C114.608 6.00029 114.544 6.16743 114.418 6.27885C114.299 6.39028 114.161 6.446 114.003 6.446C113.829 6.446 113.682 6.39028 113.564 6.27885C113.445 6.16743 113.386 6.00029 113.386 5.77743C113.386 5.54662 113.445 5.37948 113.564 5.27601C113.682 5.16458 113.829 5.10887 114.003 5.10887Z" fill="white"/>
<path d="M121.676 4.85815C121.644 5.25611 121.545 5.59039 121.379 5.861C121.221 6.13161 120.984 6.33457 120.667 6.46987C120.351 6.60518 119.94 6.67283 119.434 6.67283C118.919 6.67283 118.504 6.60518 118.188 6.46987C117.879 6.33457 117.654 6.13559 117.512 5.87294C117.369 5.60233 117.282 5.26407 117.251 4.85815H118.223C118.263 5.28795 118.374 5.57845 118.556 5.72968C118.745 5.87294 119.046 5.94457 119.457 5.94457C119.821 5.94457 120.106 5.86896 120.311 5.71774C120.525 5.55856 120.651 5.27203 120.691 4.85815H121.676ZM117.512 11.4125C117.512 11.4841 117.508 11.5876 117.5 11.7229C117.5 11.8502 117.496 11.9895 117.488 12.1407C117.48 12.284 117.472 12.4233 117.464 12.5586C117.456 12.6859 117.448 12.7894 117.441 12.869L120.845 7.50854H122.126V13.9077H121.154V10.135C121.154 10.0077 121.154 9.84056 121.154 9.63362C121.162 9.42668 121.169 9.22373 121.177 9.02475C121.185 8.81781 121.193 8.66261 121.201 8.55914L117.82 13.9077H116.527V7.50854H117.512V11.4125Z" fill="white"/>
<path d="M125.194 7.50854V10.1709H128.646V7.50854H129.69V13.9077H128.646V11.0543H125.194V13.9077H124.15V7.50854H125.194Z" fill="white"/>
<path d="M132.688 11.4125C132.688 11.4841 132.684 11.5876 132.676 11.7229C132.676 11.8502 132.672 11.9895 132.664 12.1407C132.656 12.284 132.648 12.4233 132.64 12.5586C132.632 12.6859 132.625 12.7894 132.617 12.869L136.021 7.50854H137.303V13.9077H136.33V10.135C136.33 10.0077 136.33 9.84056 136.33 9.63362C136.338 9.42668 136.346 9.22373 136.353 9.02475C136.361 8.81781 136.369 8.66261 136.377 8.55914L132.996 13.9077H131.703V7.50854H132.688V11.4125Z" fill="white"/>
<path d="M144.475 4.85815C144.443 5.25611 144.344 5.59039 144.178 5.861C144.02 6.13161 143.783 6.33457 143.466 6.46987C143.15 6.60518 142.739 6.67283 142.232 6.67283C141.718 6.67283 141.303 6.60518 140.987 6.46987C140.678 6.33457 140.453 6.13559 140.311 5.87294C140.168 5.60233 140.081 5.26407 140.05 4.85815H141.022C141.062 5.28795 141.173 5.57845 141.355 5.72968C141.544 5.87294 141.845 5.94457 142.256 5.94457C142.62 5.94457 142.905 5.86896 143.11 5.71774C143.324 5.55856 143.45 5.27203 143.49 4.85815H144.475ZM140.311 11.4125C140.311 11.4841 140.307 11.5876 140.299 11.7229C140.299 11.8502 140.295 11.9895 140.287 12.1407C140.279 12.284 140.271 12.4233 140.263 12.5586C140.255 12.6859 140.247 12.7894 140.24 12.869L143.644 7.50854H144.925V13.9077H143.953V10.135C143.953 10.0077 143.953 9.84056 143.953 9.63362C143.96 9.42668 143.968 9.22373 143.976 9.02475C143.984 8.81781 143.992 8.66261 144 8.55914L140.619 13.9077H139.326V7.50854H140.311V11.4125Z" fill="white"/>
<path d="M154.197 5.26407V6.31467C155.115 6.33059 155.838 6.48181 156.368 6.76834C156.898 7.05487 157.274 7.43691 157.495 7.91445C157.716 8.38404 157.827 8.90934 157.827 9.49036C157.827 9.87239 157.768 10.2544 157.649 10.6365C157.538 11.0105 157.345 11.3528 157.068 11.6632C156.791 11.9656 156.419 12.2124 155.953 12.4034C155.486 12.5944 154.901 12.6979 154.197 12.7138V14.027H153.141V12.7138C152.422 12.6979 151.825 12.5944 151.35 12.4034C150.883 12.2044 150.516 11.9497 150.247 11.6393C149.978 11.321 149.788 10.9747 149.677 10.6007C149.567 10.2266 149.511 9.85647 149.511 9.49036C149.511 9.06852 149.571 8.67057 149.689 8.29649C149.816 7.91445 150.017 7.58017 150.294 7.29364C150.579 6.99915 150.955 6.76436 151.421 6.58926C151.888 6.41416 152.461 6.32263 153.141 6.31467V5.26407H154.197ZM153.141 7.22201C152.509 7.23793 152.002 7.3414 151.623 7.53241C151.251 7.72343 150.986 7.98608 150.828 8.32037C150.67 8.64669 150.591 9.03271 150.591 9.47842C150.591 9.948 150.678 10.3579 150.852 10.7081C151.034 11.0503 151.31 11.317 151.682 11.508C152.062 11.699 152.548 11.8065 153.141 11.8303V7.22201ZM154.197 11.8303C154.806 11.8065 155.296 11.695 155.668 11.4961C156.048 11.2971 156.321 11.0265 156.487 10.6842C156.661 10.334 156.748 9.93209 156.748 9.47842C156.748 9.02475 156.669 8.63475 156.51 8.30843C156.352 7.97414 156.087 7.71547 155.716 7.53241C155.344 7.3414 154.838 7.23793 154.197 7.22201V11.8303Z" fill="white"/>
<path d="M164.977 10.6962C164.977 11.2294 164.906 11.703 164.763 12.1169C164.629 12.5228 164.431 12.869 164.17 13.1555C163.917 13.4421 163.605 13.6609 163.233 13.8122C162.869 13.9554 162.462 14.027 162.011 14.027C161.592 14.027 161.205 13.9554 160.849 13.8122C160.493 13.6609 160.184 13.4421 159.923 13.1555C159.662 12.869 159.457 12.5228 159.307 12.1169C159.164 11.703 159.093 11.2294 159.093 10.6962C159.093 9.9878 159.212 9.39087 159.449 8.90536C159.686 8.4119 160.026 8.03782 160.469 7.78313C160.912 7.52048 161.438 7.38915 162.047 7.38915C162.624 7.38915 163.13 7.52048 163.565 7.78313C164.008 8.03782 164.352 8.4119 164.597 8.90536C164.85 9.39087 164.977 9.9878 164.977 10.6962ZM160.173 10.6962C160.173 11.1976 160.236 11.6353 160.362 12.0094C160.497 12.3755 160.702 12.6581 160.979 12.8571C161.256 13.056 161.608 13.1555 162.035 13.1555C162.462 13.1555 162.814 13.056 163.091 12.8571C163.368 12.6581 163.569 12.3755 163.696 12.0094C163.83 11.6353 163.898 11.1976 163.898 10.6962C163.898 10.1868 163.83 9.75301 163.696 9.39485C163.561 9.03669 163.356 8.7621 163.079 8.57108C162.81 8.3721 162.458 8.27261 162.023 8.27261C161.375 8.27261 160.904 8.48751 160.611 8.9173C160.319 9.34709 160.173 9.94004 160.173 10.6962Z" fill="white"/>
<path d="M167.675 7.50854V10.1709H171.128V7.50854H172.171V13.9077H171.128V11.0543H167.675V13.9077H166.632V7.50854H167.675Z" fill="white"/>
<path d="M178.906 7.50854V13.0242H179.832V16.1283H178.823V13.9077H174.398V16.1283H173.402V13.0242H173.912C174.276 12.5148 174.576 11.9617 174.814 11.3647C175.059 10.7598 175.241 10.1311 175.359 9.47842C175.486 8.81781 175.553 8.16118 175.561 7.50854H178.906ZM176.486 8.33231C176.455 8.87352 176.372 9.43464 176.237 10.0157C176.103 10.5887 175.929 11.1379 175.715 11.6632C175.51 12.1885 175.268 12.6422 174.992 13.0242H177.898V8.33231H176.486Z" fill="white"/>
<path d="M75.5275 25.2892L79.1852 33.3279L82.7243 25.2892H85.433L80.3913 36.3126C80.1672 36.8034 79.9234 37.2544 79.6598 37.6656C79.3961 38.0768 79.0864 38.435 78.7305 38.7401C78.3746 39.0319 77.966 39.2641 77.5047 39.4365C77.0565 39.609 76.5359 39.6952 75.9427 39.6952C75.5209 39.6952 75.1585 39.662 74.8553 39.5957C74.5653 39.5426 74.3149 39.4697 74.104 39.3768C73.9063 39.284 73.7349 39.1845 73.5899 39.0783C73.4449 38.9722 73.3197 38.8727 73.2143 38.7799L74.6576 36.9493C74.8026 37.0819 74.9937 37.2212 75.231 37.3671C75.4814 37.5131 75.778 37.586 76.1207 37.586C76.4897 37.586 76.8127 37.4733 77.0895 37.2477C77.3663 37.009 77.6299 36.6641 77.8803 36.2131L72.7793 25.2892H75.5275Z" fill="white"/>
<path d="M89.2566 33.4473C89.6653 33.4473 90.0475 33.4871 90.4034 33.5667L93.1516 29.7463H95.7614L92.4398 34.2631C93.3889 34.7274 94.1336 35.384 94.674 36.233C95.2144 37.0819 95.6428 38.1299 95.9592 39.3768H93.3493C93.1912 38.6207 92.9869 37.9906 92.7364 37.4865C92.4992 36.9824 92.2092 36.5779 91.8665 36.2728C91.5369 35.9677 91.1547 35.7422 90.7197 35.5962C90.2979 35.4503 89.8102 35.3641 89.2566 35.3376V39.3768H86.8841V29.7463H89.2566V33.4473Z" fill="white"/>
<path d="M100.572 44.1523H98.1995V29.7463H100.473V31.1391H100.533C100.875 30.6351 101.337 30.2371 101.917 29.9453C102.497 29.6402 103.136 29.4876 103.834 29.4876C104.559 29.4876 105.212 29.6203 105.792 29.8856C106.372 30.1509 106.866 30.5157 107.275 30.98C107.683 31.431 108 31.9682 108.224 32.5917C108.448 33.2019 108.56 33.8519 108.56 34.5417C108.56 35.2314 108.448 35.8881 108.224 36.5115C108.013 37.1217 107.703 37.659 107.294 38.1233C106.886 38.5875 106.385 38.959 105.792 39.2375C105.212 39.5028 104.559 39.6355 103.834 39.6355C103.202 39.6355 102.589 39.5028 101.996 39.2375C101.416 38.959 100.954 38.5676 100.612 38.0636H100.572V44.1523ZM106.009 35.7355C106.141 35.3508 106.207 34.9529 106.207 34.5417C106.207 34.1304 106.141 33.7391 106.009 33.3677C105.891 32.983 105.713 32.6514 105.475 32.3728C105.238 32.081 104.942 31.8555 104.586 31.6963C104.23 31.5238 103.815 31.4376 103.34 31.4376C102.905 31.4376 102.51 31.5238 102.154 31.6963C101.798 31.8555 101.488 32.081 101.225 32.3728C100.974 32.6514 100.776 32.983 100.631 33.3677C100.5 33.7391 100.434 34.1304 100.434 34.5417C100.434 34.9661 100.5 35.3707 100.631 35.7554C100.776 36.1268 100.974 36.4518 101.225 36.7304C101.488 37.009 101.798 37.2345 102.154 37.4069C102.51 37.5661 102.905 37.6457 103.34 37.6457C103.815 37.6457 104.23 37.5661 104.586 37.4069C104.942 37.2345 105.238 37.009 105.475 36.7304C105.713 36.4386 105.891 36.1069 106.009 35.7355Z" fill="white"/>
<path d="M116.774 33.1687C116.774 32.532 116.583 32.0611 116.201 31.756C115.818 31.4509 115.311 31.2983 114.678 31.2983C114.177 31.2983 113.696 31.3978 113.235 31.5968C112.787 31.7958 112.405 32.0478 112.088 32.3529L110.862 30.98C111.35 30.5157 111.943 30.1509 112.642 29.8856C113.354 29.607 114.105 29.4677 114.896 29.4677C116.148 29.4677 117.123 29.7662 117.822 30.3631C118.521 30.9601 118.903 31.8952 118.969 33.1687C118.982 33.3544 118.988 33.5401 118.988 33.7258C119.002 33.9116 119.008 34.1039 119.008 34.3029V37.3472C119.008 37.6921 119.015 38.0437 119.028 38.4018C119.041 38.7467 119.061 39.0717 119.087 39.3768H116.912C116.899 39.1778 116.886 38.9722 116.873 38.76C116.86 38.5477 116.853 38.3289 116.853 38.1034H116.814C116.471 38.6074 116.042 38.9855 115.528 39.2375C115.014 39.4896 114.421 39.6156 113.749 39.6156C113.38 39.6156 112.991 39.5625 112.582 39.4564C112.187 39.3503 111.825 39.1845 111.495 38.959C111.166 38.7202 110.889 38.4151 110.665 38.0437C110.454 37.659 110.348 37.1881 110.348 36.6309C110.348 35.9146 110.533 35.3442 110.902 34.9197C111.284 34.4952 111.778 34.1702 112.385 33.9447C113.004 33.7192 113.696 33.5733 114.461 33.507C115.225 33.4406 115.996 33.4075 116.774 33.4075V33.1687ZM116.418 34.8998C115.97 34.8998 115.515 34.9197 115.054 34.9595C114.606 34.9993 114.197 35.0789 113.828 35.1983C113.472 35.3044 113.176 35.4702 112.938 35.6957C112.714 35.908 112.602 36.1932 112.602 36.5513C112.602 36.8166 112.655 37.0355 112.76 37.208C112.866 37.3804 112.998 37.5197 113.156 37.6258C113.327 37.7319 113.518 37.8115 113.729 37.8646C113.94 37.9044 114.151 37.9243 114.362 37.9243C115.153 37.9243 115.759 37.6855 116.181 37.208C116.603 36.7171 116.814 36.1136 116.814 35.3973V34.8998H116.418Z" fill="white"/>
<path d="M124.283 39.3768H121.91V29.7463H124.283V39.3768ZM119.755 26.3836C119.755 26.0387 119.887 25.7336 120.151 25.4683C120.401 25.1897 120.717 25.0504 121.1 25.0504C121.482 25.0504 121.805 25.1831 122.068 25.4484C122.332 25.7137 122.464 26.0254 122.464 26.3836C122.464 26.755 122.332 27.0734 122.068 27.3387C121.805 27.604 121.482 27.7366 121.1 27.7366C120.717 27.7366 120.401 27.604 120.151 27.3387C119.887 27.0601 119.755 26.7417 119.755 26.3836ZM123.828 26.3836C123.828 26.0387 123.953 25.7336 124.204 25.4683C124.467 25.1897 124.79 25.0504 125.173 25.0504C125.555 25.0504 125.871 25.1831 126.122 25.4484C126.385 25.7137 126.517 26.0254 126.517 26.3836C126.517 26.755 126.385 27.0734 126.122 27.3387C125.871 27.604 125.555 27.7366 125.173 27.7366C124.79 27.7366 124.467 27.604 124.204 27.3387C123.953 27.0601 123.828 26.7417 123.828 26.3836Z" fill="white"/>
<path d="M129.668 39.3768H127.296V29.7463H129.668V33.4473H133.88V29.7463H136.252V39.3768H133.88V35.3177H129.668V39.3768Z" fill="white"/>
<path d="M145.932 32.4524C145.734 32.1473 145.451 31.9085 145.082 31.7361C144.713 31.5504 144.324 31.4575 143.915 31.4575C143.48 31.4575 143.085 31.5371 142.729 31.6963C142.386 31.8555 142.09 32.0743 141.839 32.3529C141.602 32.6315 141.411 32.9631 141.266 33.3478C141.134 33.7192 141.068 34.1238 141.068 34.5616C141.068 34.986 141.134 35.3906 141.266 35.7753C141.398 36.1467 141.589 36.4717 141.839 36.7503C142.09 37.0289 142.393 37.2478 142.749 37.4069C143.105 37.5661 143.5 37.6457 143.935 37.6457C144.383 37.6457 144.785 37.5595 145.141 37.387C145.51 37.2146 145.807 36.9824 146.031 36.6906L147.474 38.2227C147.066 38.6605 146.552 39.012 145.932 39.2773C145.326 39.5294 144.64 39.6554 143.876 39.6554C143.111 39.6554 142.406 39.536 141.76 39.2972C141.128 39.0452 140.574 38.7003 140.1 38.2625C139.638 37.8115 139.276 37.2743 139.012 36.6508C138.762 36.0274 138.636 35.3309 138.636 34.5616C138.636 33.8054 138.768 33.1156 139.032 32.4922C139.296 31.8687 139.658 31.3315 140.119 30.8805C140.581 30.4294 141.134 30.0846 141.78 29.8458C142.426 29.5937 143.125 29.4677 143.876 29.4677C144.548 29.4677 145.207 29.5937 145.853 29.8458C146.512 30.0978 147.039 30.456 147.435 30.9203L145.932 32.4524Z" fill="white"/>
<path d="M151.467 29.7463V32.8503H153.701C154.413 32.8503 155.019 32.9366 155.52 33.109C156.021 33.2682 156.423 33.4937 156.726 33.7855C157.043 34.0774 157.267 34.4223 157.399 34.8202C157.544 35.2182 157.616 35.6427 157.616 36.0937C157.616 36.558 157.53 36.9891 157.359 37.387C157.201 37.785 156.957 38.1299 156.628 38.4217C156.311 38.7136 155.916 38.9457 155.441 39.1181C154.967 39.2906 154.413 39.3768 153.78 39.3768H149.095V29.7463H151.467ZM151.467 37.6457H153.266C153.86 37.6457 154.341 37.5396 154.71 37.3273C155.079 37.1018 155.263 36.6906 155.263 36.0937C155.263 35.8018 155.211 35.5564 155.105 35.3575C155 35.1585 154.855 35.0059 154.67 34.8998C154.486 34.7804 154.268 34.7008 154.018 34.661C153.78 34.608 153.517 34.5814 153.227 34.5814H151.467V37.6457Z" fill="white"/>
<path d="M162.164 33.4473C162.572 33.4473 162.955 33.4871 163.311 33.5667L166.059 29.7463H168.669L165.347 34.2631C166.296 34.7274 167.041 35.384 167.581 36.233C168.122 37.0819 168.55 38.1299 168.866 39.3768H166.257C166.098 38.6207 165.894 37.9906 165.644 37.4865C165.406 36.9824 165.116 36.5779 164.774 36.2728C164.444 35.9677 164.062 35.7422 163.627 35.5962C163.205 35.4503 162.717 35.3641 162.164 35.3376V39.3768H159.791V29.7463H162.164V33.4473Z" fill="white"/>
<path d="M176.88 33.1687C176.88 32.532 176.689 32.0611 176.307 31.756C175.924 31.4509 175.417 31.2983 174.784 31.2983C174.283 31.2983 173.802 31.3978 173.341 31.5968C172.893 31.7958 172.511 32.0478 172.194 32.3529L170.968 30.98C171.456 30.5157 172.049 30.1509 172.748 29.8856C173.46 29.607 174.211 29.4677 175.002 29.4677C176.254 29.4677 177.229 29.7662 177.928 30.3631C178.626 30.9601 179.009 31.8952 179.075 33.1687C179.088 33.3544 179.094 33.5401 179.094 33.7258C179.108 33.9116 179.114 34.1039 179.114 34.3029V37.3472C179.114 37.6921 179.121 38.0437 179.134 38.4018C179.147 38.7467 179.167 39.0717 179.193 39.3768H177.018C177.005 39.1778 176.992 38.9722 176.979 38.76C176.966 38.5477 176.959 38.3289 176.959 38.1034H176.92C176.577 38.6074 176.148 38.9855 175.634 39.2375C175.12 39.4896 174.527 39.6156 173.855 39.6156C173.486 39.6156 173.097 39.5625 172.688 39.4564C172.293 39.3503 171.931 39.1845 171.601 38.959C171.272 38.7202 170.995 38.4151 170.771 38.0437C170.56 37.659 170.454 37.1881 170.454 36.6309C170.454 35.9146 170.639 35.3442 171.008 34.9197C171.39 34.4952 171.884 34.1702 172.491 33.9447C173.11 33.7192 173.802 33.5733 174.567 33.507C175.331 33.4406 176.102 33.4075 176.88 33.4075V33.1687ZM176.524 34.8998C176.076 34.8998 175.621 34.9197 175.16 34.9595C174.712 34.9993 174.303 35.0789 173.934 35.1983C173.578 35.3044 173.282 35.4702 173.044 35.6957C172.82 35.908 172.708 36.1932 172.708 36.5513C172.708 36.8166 172.761 37.0355 172.866 37.208C172.972 37.3804 173.104 37.5197 173.262 37.6258C173.433 37.7319 173.624 37.8115 173.835 37.8646C174.046 37.9044 174.257 37.9243 174.468 37.9243C175.259 37.9243 175.865 37.6855 176.287 37.208C176.709 36.7171 176.92 36.1136 176.92 35.3973V34.8998H176.524Z" fill="white"/>
<path d="M198.11 25.2892V39.3768H195.639V27.4381H189.549V39.3768H187.078V25.2892H198.11Z" fill="white"/>
<path d="M208.147 33.6264C208.134 32.9366 207.916 32.3595 207.494 31.8952C207.086 31.431 206.486 31.1988 205.695 31.1988C205.313 31.1988 204.964 31.2652 204.647 31.3978C204.331 31.5305 204.054 31.7095 203.817 31.935C203.58 32.1473 203.389 32.406 203.244 32.7111C203.112 33.0029 203.033 33.308 203.006 33.6264H208.147ZM210.401 34.5019V34.8401C210.401 34.9595 210.394 35.0789 210.381 35.1983H202.987C203 35.5564 203.085 35.8947 203.244 36.2131C203.402 36.5314 203.606 36.8034 203.856 37.0289C204.12 37.2544 204.417 37.4335 204.746 37.5661C205.076 37.6988 205.432 37.7651 205.814 37.7651C206.407 37.7651 206.921 37.6391 207.356 37.387C207.791 37.135 208.127 36.8299 208.364 36.4717L210.045 37.6059C209.544 38.2957 208.931 38.813 208.206 39.1579C207.494 39.4896 206.69 39.6554 205.794 39.6554C205.082 39.6554 204.41 39.536 203.777 39.2972C203.158 39.0584 202.617 38.7202 202.156 38.2824C201.695 37.8447 201.332 37.3141 201.069 36.6906C200.805 36.0671 200.673 35.3641 200.673 34.5814C200.673 33.8253 200.798 33.1355 201.049 32.5121C201.313 31.8754 201.668 31.3315 202.117 30.8805C202.578 30.4294 203.112 30.0846 203.718 29.8458C204.324 29.5937 204.983 29.4677 205.695 29.4677C206.42 29.4677 207.073 29.5937 207.653 29.8458C208.233 30.0846 208.727 30.4228 209.135 30.8606C209.544 31.2983 209.854 31.8289 210.065 32.4524C210.289 33.0626 210.401 33.7457 210.401 34.5019Z" fill="white"/>
<path d="M215.185 44.1523H212.812V29.7463H215.086V31.1391H215.145C215.488 30.6351 215.949 30.2371 216.529 29.9453C217.109 29.6402 217.748 29.4876 218.447 29.4876C219.172 29.4876 219.824 29.6203 220.404 29.8856C220.984 30.1509 221.479 30.5157 221.887 30.98C222.296 31.431 222.612 31.9682 222.836 32.5917C223.06 33.2019 223.172 33.8519 223.172 34.5417C223.172 35.2314 223.06 35.8881 222.836 36.5115C222.625 37.1217 222.316 37.659 221.907 38.1233C221.498 38.5875 220.998 38.959 220.404 39.2375C219.824 39.5028 219.172 39.6355 218.447 39.6355C217.814 39.6355 217.201 39.5028 216.608 39.2375C216.028 38.959 215.567 38.5676 215.224 38.0636H215.185V44.1523ZM220.622 35.7355C220.754 35.3508 220.82 34.9529 220.82 34.5417C220.82 34.1304 220.754 33.7391 220.622 33.3677C220.503 32.983 220.325 32.6514 220.088 32.3728C219.851 32.081 219.554 31.8555 219.198 31.6963C218.842 31.5238 218.427 31.4376 217.953 31.4376C217.518 31.4376 217.122 31.5238 216.766 31.6963C216.411 31.8555 216.101 32.081 215.837 32.3728C215.587 32.6514 215.389 32.983 215.244 33.3677C215.112 33.7391 215.046 34.1304 215.046 34.5417C215.046 34.9661 215.112 35.3707 215.244 35.7554C215.389 36.1268 215.587 36.4518 215.837 36.7304C216.101 37.009 216.411 37.2345 216.766 37.4069C217.122 37.5661 217.518 37.6457 217.953 37.6457C218.427 37.6457 218.842 37.5661 219.198 37.4069C219.554 37.2345 219.851 37.009 220.088 36.7304C220.325 36.4386 220.503 36.1069 220.622 35.7355Z" fill="white"/>
<path d="M232.514 33.6264C232.5 32.9366 232.283 32.3595 231.861 31.8952C231.453 31.431 230.853 31.1988 230.062 31.1988C229.68 31.1988 229.33 31.2652 229.014 31.3978C228.698 31.5305 228.421 31.7095 228.184 31.935C227.946 32.1473 227.755 32.406 227.61 32.7111C227.479 33.0029 227.399 33.308 227.373 33.6264H232.514ZM234.768 34.5019V34.8401C234.768 34.9595 234.761 35.0789 234.748 35.1983H227.353C227.366 35.5564 227.452 35.8947 227.61 36.2131C227.768 36.5314 227.973 36.8034 228.223 37.0289C228.487 37.2544 228.783 37.4335 229.113 37.5661C229.442 37.6988 229.798 37.7651 230.181 37.7651C230.774 37.7651 231.288 37.6391 231.723 37.387C232.158 37.135 232.494 36.8299 232.731 36.4717L234.412 37.6059C233.911 38.2957 233.298 38.813 232.573 39.1579C231.861 39.4896 231.057 39.6554 230.161 39.6554C229.449 39.6554 228.777 39.536 228.144 39.2972C227.525 39.0584 226.984 38.7202 226.523 38.2824C226.062 37.8447 225.699 37.3141 225.435 36.6906C225.172 36.0671 225.04 35.3641 225.04 34.5814C225.04 33.8253 225.165 33.1355 225.416 32.5121C225.679 31.8754 226.035 31.3315 226.483 30.8805C226.945 30.4294 227.479 30.0846 228.085 29.8458C228.691 29.5937 229.35 29.4677 230.062 29.4677C230.787 29.4677 231.439 29.5937 232.019 29.8458C232.599 30.0846 233.094 30.4228 233.502 30.8606C233.911 31.2983 234.221 31.8289 234.431 32.4524C234.656 33.0626 234.768 33.7457 234.768 34.5019Z" fill="white"/>
<path d="M239.215 29.7463L242.834 34.1039L246.392 29.7463H248.468V39.3768H246.096V33.0891L243.091 37.0289H242.537L239.512 33.1488V39.3768H237.139V29.7463H239.215Z" fill="white"/>
<path d="M260.899 32.4723C261.176 33.0957 261.314 33.7855 261.314 34.5417C261.314 35.2978 261.176 35.9942 260.899 36.6309C260.635 37.2544 260.266 37.7916 259.792 38.2426C259.33 38.6937 258.777 39.0452 258.131 39.2972C257.498 39.536 256.813 39.6554 256.075 39.6554C255.336 39.6554 254.651 39.536 254.018 39.2972C253.386 39.0452 252.832 38.6937 252.358 38.2426C251.896 37.7916 251.527 37.2544 251.25 36.6309C250.987 35.9942 250.855 35.2978 250.855 34.5417C250.855 33.7855 250.987 33.0957 251.25 32.4723C251.527 31.8488 251.896 31.3182 252.358 30.8805C252.832 30.4294 253.386 30.0846 254.018 29.8458C254.651 29.5937 255.336 29.4677 256.075 29.4677C256.813 29.4677 257.498 29.5937 258.131 29.8458C258.777 30.0846 259.33 30.4294 259.792 30.8805C260.266 31.3182 260.635 31.8488 260.899 32.4723ZM258.763 35.7355C258.895 35.3508 258.961 34.9529 258.961 34.5417C258.961 34.1304 258.895 33.7391 258.763 33.3677C258.632 32.983 258.441 32.6514 258.19 32.3728C257.953 32.081 257.65 31.8555 257.281 31.6963C256.925 31.5238 256.523 31.4376 256.075 31.4376C255.626 31.4376 255.224 31.5238 254.868 31.6963C254.513 31.8555 254.209 32.081 253.959 32.3728C253.722 32.6514 253.537 32.983 253.405 33.3677C253.274 33.7391 253.208 34.1304 253.208 34.5417C253.208 34.9529 253.274 35.3508 253.405 35.7355C253.537 36.1069 253.722 36.4386 253.959 36.7304C254.209 37.009 254.513 37.2345 254.868 37.4069C255.224 37.5661 255.626 37.6457 256.075 37.6457C256.523 37.6457 256.925 37.5661 257.281 37.4069C257.65 37.2345 257.953 37.009 258.19 36.7304C258.441 36.4386 258.632 36.1069 258.763 35.7355Z" fill="white"/>
<path d="M266.08 39.3768H263.707V29.7463H270.093V31.6167H266.08V39.3768Z" fill="white"/>
<path d="M277.687 33.1687C277.687 32.532 277.496 32.0611 277.114 31.756C276.732 31.4509 276.224 31.2983 275.592 31.2983C275.091 31.2983 274.61 31.3978 274.148 31.5968C273.7 31.7958 273.318 32.0478 273.002 32.3529L271.776 30.98C272.263 30.5157 272.857 30.1509 273.555 29.8856C274.267 29.607 275.018 29.4677 275.809 29.4677C277.061 29.4677 278.037 29.7662 278.735 30.3631C279.434 30.9601 279.816 31.8952 279.882 33.1687C279.895 33.3544 279.902 33.5401 279.902 33.7258C279.915 33.9116 279.922 34.1039 279.922 34.3029V37.3472C279.922 37.6921 279.928 38.0437 279.941 38.4018C279.954 38.7467 279.974 39.0717 280.001 39.3768H277.826C277.813 39.1778 277.799 38.9722 277.786 38.76C277.773 38.5477 277.766 38.3289 277.766 38.1034H277.727C277.384 38.6074 276.956 38.9855 276.442 39.2375C275.928 39.4896 275.335 39.6156 274.662 39.6156C274.293 39.6156 273.904 39.5625 273.496 39.4564C273.1 39.3503 272.738 39.1845 272.408 38.959C272.079 38.7202 271.802 38.4151 271.578 38.0437C271.367 37.659 271.262 37.1881 271.262 36.6309C271.262 35.9146 271.446 35.3442 271.815 34.9197C272.198 34.4952 272.692 34.1702 273.298 33.9447C273.918 33.7192 274.61 33.5733 275.374 33.507C276.139 33.4406 276.91 33.4075 277.687 33.4075V33.1687ZM277.331 34.8998C276.883 34.8998 276.429 34.9197 275.967 34.9595C275.519 34.9993 275.111 35.0789 274.741 35.1983C274.386 35.3044 274.089 35.4702 273.852 35.6957C273.628 35.908 273.516 36.1932 273.516 36.5513C273.516 36.8166 273.568 37.0355 273.674 37.208C273.779 37.3804 273.911 37.5197 274.069 37.6258C274.241 37.7319 274.432 37.8115 274.643 37.8646C274.853 37.9044 275.064 37.9243 275.275 37.9243C276.066 37.9243 276.672 37.6855 277.094 37.208C277.516 36.7171 277.727 36.1136 277.727 35.3973V34.8998H277.331Z" fill="white"/>
<path d="M35.5345 28.8168C33.7586 26.0775 33.659 24.1399 35.2026 22.1856C35.8499 22.6366 36.5138 23.0876 37.1776 23.5386C33.0449 18.9452 30.074 13.6837 27.7338 8.03797C27.4019 7.25292 27.1861 6.40105 27.0036 5.56589C26.9372 5.24853 27.1031 4.89776 27.1695 4.547C27.4849 4.64721 27.9164 4.66392 28.1156 4.88106C29.0118 5.81644 29.9413 6.75182 30.7047 7.80413C33.4267 11.5289 35.7005 15.5377 37.4764 19.8305C37.5428 20.0142 37.6258 20.1812 37.7087 20.3483C41.1776 20.3483 42.8373 21.2168 43.551 23.4216C42.8705 23.739 42.19 24.0564 41.4099 24.4238C43.219 24.1566 44.8953 23.8058 46.6048 23.6722C51.3516 23.2713 56.0984 23.2713 60.812 24.2067C61.2768 24.2902 61.7249 24.4405 62.1564 24.6243C62.4054 24.7412 62.5879 25.0085 62.7871 25.2089C62.5879 25.4093 62.4054 25.7434 62.173 25.7935C60.812 26.1276 59.4345 26.5117 58.0569 26.6788C53.5923 27.1799 49.111 27.1465 44.6464 26.5619C44.3974 26.5284 44.1485 26.5117 43.9327 26.495C42.3062 29.4348 40.5635 30.5539 38.3726 30.0361C38.439 29.2511 38.5054 28.466 38.5884 27.6643C38.5386 27.6476 38.4888 27.6476 38.439 27.6309C38.3062 28.1153 38.2233 28.6164 38.0407 29.1007C35.966 34.7965 32.9951 39.9746 29.128 44.618C28.7629 45.0523 28.2981 45.4365 27.8168 45.7706C27.2857 46.1213 26.9206 45.9209 26.987 45.2862C27.0865 44.5011 27.2525 43.6827 27.5347 42.9477C29.3936 38.0537 31.9827 33.5772 35.103 29.3847C35.2358 29.2177 35.3851 29.0172 35.5345 28.8168Z" fill="#232222"/>
</svg>
